<?xml version="1.0" standalone="no"?>
<!DOCTYPE svg PUBLIC "-//W3C//DTD SVG 20010904//EN"
 "http://www.w3.org/TR/2001/REC-SVG-20010904/DTD/svg10.dtd">
<svg version="1.0" xmlns="http://www.w3.org/2000/svg"
 width="354.000000pt" height="348.000000pt" viewBox="0 0 354.000000 348.000000"
 preserveAspectRatio="xMidYMid meet">

<g transform="translate(0.000000,348.000000) scale(0.100000,-0.100000)"
fill="#000000" stroke="none">
<path d="M2060 3398 c-172 -95 -321 -183 -485 -288 -66 -42 -125 -79 -131 -83
-7 -4 -28 21 -54 66 -67 114 -39 107 -381 107 l-295 0 -70 -57 c-192 -158
-350 -356 -466 -587 -90 -179 -167 -453 -171 -609 -2 -63 0 -71 23 -88 14 -11
52 -24 85 -31 33 -7 61 -13 63 -14 2 -1 -13 -27 -33 -58 -20 -31 -56 -98 -81
-149 -53 -106 -53 -122 -8 -293 25 -98 96 -289 118 -320 11 -14 23 -14 133 0
67 9 128 16 136 16 12 0 7 -17 -19 -70 -45 -90 -69 -187 -59 -236 6 -32 31
-62 153 -184 81 -80 160 -151 175 -159 24 -13 41 -13 115 -2 182 27 166 27
158 0 -4 -13 -9 -55 -12 -94 l-6 -70 79 -34 c375 -163 752 -201 1134 -115 59
13 75 23 157 95 107 93 198 199 244 284 27 50 33 71 33 125 0 60 -5 75 -66
202 l-67 136 142 81 c299 168 595 384 803 585 l123 118 0 117 c0 120 -17 263
-45 388 -15 65 -20 73 -47 82 -93 33 -251 -3 -409 -93 -45 -25 -84 -45 -86
-42 -2 2 29 29 69 61 89 72 281 241 326 288 l34 35 -38 73 c-56 112 -184 302
-228 338 -20 17 -72 9 -235 -35 -293 -81 -625 -239 -964 -460 -70 -46 -132
-84 -137 -84 -9 0 -25 39 -18 44 1 2 75 40 163 84 434 220 751 430 852 567 44
59 68 117 59 140 -8 23 -193 140 -298 190 -85 40 -293 116 -314 114 -5 0 -74
-36 -154 -81z m190 36 c0 -57 -126 -185 -335 -339 -95 -71 -372 -255 -382
-255 -5 0 -27 38 -50 84 l-42 84 122 80 c147 96 283 178 437 262 63 35 137 76
164 91 52 29 86 26 86 -7z m155 -31 c150 -57 415 -209 415 -238 0 -5 -11 -34
-25 -63 -47 -102 -219 -245 -485 -404 -149 -90 -543 -298 -562 -298 -13 0
-216 406 -207 414 2 2 85 58 184 124 356 237 522 385 541 482 8 35 1 36 139
-17z m-1081 -236 c12 -12 40 -53 61 -91 33 -59 36 -70 23 -77 -30 -17 -244
-172 -310 -226 l-68 -54 -70 140 c-38 77 -99 183 -134 235 l-65 96 270 0 c268
0 270 0 293 -23z m-557 -29 c50 -55 118 -167 107 -177 -5 -4 -43 -32 -85 -64
-97 -73 -300 -281 -408 -418 -78 -100 -85 -106 -110 -99 -47 13 -90 40 -107
65 -15 23 -13 28 40 132 66 129 134 230 235 348 74 88 256 255 277 255 6 0 29
-19 51 -42z m703 -218 c22 -44 40 -84 40 -89 0 -14 -388 -241 -412 -241 -7 0
-62 119 -57 123 117 93 164 129 264 201 66 47 121 86 122 86 2 0 21 -36 43
-80z m-509 -82 l61 -122 -28 -24 c-16 -13 -94 -81 -172 -150 -133 -118 -149
-128 -210 -145 -72 -20 -292 -36 -292 -21 1 27 270 334 374 427 64 57 192 157
202 157 2 0 31 -55 65 -122z m2069 57 c-21 -25 -296 -248 -441 -356 -160 -120
-384 -272 -529 -359 -58 -34 -120 -71 -137 -82 l-33 -20 -55 113 c-30 61 -55
118 -55 124 0 7 55 49 123 92 371 241 714 402 1027 482 98 25 117 26 100 6z
m111 -37 c61 -77 142 -203 180 -282 l34 -68 -90 -86 c-177 -169 -431 -369
-679 -536 -72 -47 -131 -93 -132 -101 -1 -8 0 -15 2 -15 2 0 73 49 157 109
404 290 598 388 747 379 38 -2 72 -7 76 -11 10 -9 -11 -31 -152 -162 -219
-202 -404 -347 -649 -508 -133 -87 -372 -227 -387 -227 -14 0 -101 192 -91
199 110 73 290 214 290 226 0 8 -2 15 -4 15 -2 0 -59 -34 -127 -75 -133 -80
-193 -111 -200 -104 -2 2 -52 103 -110 224 -80 168 -102 223 -93 231 7 6 57
37 112 69 292 170 683 453 979 707 43 37 83 68 87 68 5 0 27 -24 50 -52z
m-1516 -258 c52 -107 94 -200 95 -206 0 -16 -414 -214 -424 -203 -18 20 -185
373 -179 379 4 4 64 38 132 75 68 37 155 86 195 111 39 24 75 42 79 41 5 -1
51 -90 102 -197z m-570 50 c14 -27 25 -54 25 -60 0 -14 -247 -122 -330 -144
-23 -6 -22 -4 11 26 60 55 261 228 265 228 2 0 15 -22 29 -50z m134 -276 c50
-103 91 -190 91 -194 0 -10 -320 -146 -490 -209 -395 -145 -669 -179 -761 -95
-16 14 -19 26 -15 49 3 16 8 48 10 70 11 107 47 255 93 383 l26 73 21 -26 c12
-15 44 -34 73 -44 l52 -18 -61 -84 c-98 -137 -200 -290 -195 -295 2 -2 26 28
52 68 26 40 85 125 131 189 l83 116 128 6 c98 4 153 13 238 36 110 30 262 86
365 135 30 14 58 26 61 26 4 0 48 -84 98 -186z m558 -27 c10 -22 6 -28 -63
-77 -41 -30 -127 -96 -192 -147 -64 -51 -119 -90 -123 -85 -17 19 -62 136 -54
139 6 2 98 46 205 97 107 52 200 95 206 95 6 1 16 -10 21 -22z m75 -157 l56
-120 -211 -106 -211 -106 -37 74 c-21 40 -38 76 -39 80 0 10 366 297 380 298
3 0 31 -54 62 -120z m1668 -95 c13 -67 24 -169 27 -261 l6 -152 -89 -87 c-231
-227 -580 -481 -886 -644 l-93 -50 -95 200 c-52 110 -95 206 -95 214 0 8 56
46 125 86 346 198 695 457 955 710 60 59 113 104 117 101 3 -4 16 -56 28 -117z
m-2160 -5 c21 -43 30 -73 24 -79 -5 -4 -52 -46 -104 -92 -52 -46 -135 -123
-185 -170 -88 -84 -92 -87 -180 -113 -74 -21 -271 -70 -374 -92 -20 -4 -13 7
38 65 61 69 231 230 382 364 62 54 102 79 205 126 71 32 136 59 145 60 9 1 28
-25 49 -69z m1610 25 c0 -2 -10 -10 -22 -16 -21 -11 -22 -11 -9 4 13 16 31 23
31 12z m-944 -285 c57 -118 104 -221 104 -228 0 -10 -392 -212 -412 -212 -7 0
-222 449 -217 452 39 24 407 205 413 204 5 -1 55 -98 112 -216z m-1102 128
c-113 -99 -205 -186 -310 -295 l-110 -115 -125 -18 c-200 -28 -298 -34 -305
-17 -6 15 53 141 112 238 l34 56 78 7 c43 3 132 19 198 35 112 28 399 121 433
141 42 24 39 6 -5 -32z m511 -20 c15 -35 29 -68 32 -74 6 -15 -381 -173 -394
-161 -8 8 310 297 326 297 5 0 21 -28 36 -62z m158 -328 c59 -120 107 -221
107 -224 0 -8 -351 -143 -485 -186 -267 -85 -595 -159 -875 -195 -107 -14
-116 -14 -127 2 -25 33 -96 229 -124 342 -33 130 -35 143 -14 135 20 -8 234
12 385 37 269 43 640 152 900 263 58 24 110 45 116 45 6 1 59 -98 117 -219z
m867 156 c0 -12 -281 -206 -290 -201 -23 14 -5 33 83 82 50 29 117 68 147 87
58 37 60 38 60 32z m-306 -203 c4 -9 3 -20 -1 -24 -17 -16 -357 -261 -368
-265 -6 -3 -23 20 -37 50 l-27 55 72 32 c40 18 131 63 202 100 72 37 135 67
141 68 7 1 15 -7 18 -16z m62 -129 c25 -53 44 -97 42 -99 -6 -6 -237 -120
-326 -161 l-92 -43 -25 49 c-14 27 -25 56 -25 64 0 12 361 286 377 286 2 0 25
-43 49 -96z m-481 -114 c14 -27 25 -53 25 -58 0 -5 -39 -41 -87 -80 -49 -38
-132 -108 -185 -156 l-98 -85 -176 -57 c-96 -31 -178 -53 -181 -50 -17 17 196
245 352 377 56 48 96 70 190 109 66 27 123 49 127 49 4 1 19 -21 33 -49z m638
-212 c54 -112 97 -207 97 -211 0 -17 -410 -201 -421 -190 -4 5 -50 97 -103
205 l-95 198 202 99 c111 55 207 100 213 100 5 1 54 -90 107 -201z m-1127 -9
c-80 -77 -167 -169 -192 -204 l-47 -63 -111 -31 c-120 -33 -284 -71 -409 -94
l-77 -15 -6 23 c-8 32 19 132 59 219 l34 73 124 22 c174 32 480 111 634 164
72 25 132 45 134 46 2 1 -63 -62 -143 -140z m557 86 l27 -55 -22 -11 c-35 -19
-341 -139 -344 -136 -7 6 292 257 306 257 3 0 18 -25 33 -55z m194 -508 c-95
-42 -464 -159 -632 -201 -176 -44 -442 -97 -557 -111 -44 -6 -63 -4 -80 8 -69
45 -298 273 -298 296 0 5 21 11 48 15 268 36 917 233 1267 384 l90 39 102
-206 103 -206 -43 -18z m551 69 c34 -73 62 -138 62 -144 0 -19 -99 -119 -169
-171 -65 -49 -197 -118 -206 -109 -17 17 -175 362 -168 368 4 4 58 28 118 54
61 26 148 67 195 91 47 24 90 44 95 44 6 0 38 -60 73 -133z m-411 -253 l90
-188 -56 -23 c-150 -62 -367 -107 -570 -118 l-122 -7 36 78 c43 94 126 221
192 291 44 47 59 55 168 94 66 23 127 46 135 51 8 5 20 9 26 9 6 0 51 -84 101
-187z m470 30 c-7 -92 -85 -204 -240 -348 -105 -97 -123 -107 -227 -129 -294
-61 -639 -37 -925 64 -148 53 -156 61 -50 53 50 -5 191 -8 315 -7 186 1 248 5
355 23 138 24 310 75 409 122 34 15 106 48 162 72 103 45 194 100 194 118 0 6
-14 -1 -32 -16 -29 -24 -185 -108 -163 -88 6 6 38 31 72 57 35 26 77 65 95 86
18 22 34 40 36 40 1 0 1 -21 -1 -47z m-937 -20 c-51 -58 -121 -170 -160 -255
l-35 -77 -85 -1 c-84 0 -346 24 -382 36 -13 4 -18 15 -18 40 0 42 19 122 30
129 5 3 64 17 132 30 125 26 373 89 483 123 33 11 62 18 64 16 2 -2 -11 -20
-29 -41z"/>
</g>
</svg>
